<?xml version="1.0" encoding="UTF-8"?>
<svg id="Vrstva_2" data-name="Vrstva 2" xmlns="http://www.w3.org/2000/svg" viewBox="0 0 645.92 342.84">
  <defs>
    <style>
      .cls-1 {
        fill: #008bd0;
      }

      .cls-2 {
        fill: #fff;
      }

      .cls-3 {
        fill: #49dcb1;
      }
    </style>
  </defs>
  <g id="Vrstva_1-2" data-name="Vrstva 1">
    <polygon points="120.42 77.21 120.42 77.21 120.42 77.21 120.42 77.21"/>
    <path class="cls-1" d="M154.31,84.35s.04.05.06.07c-.02-.02-.04-.05-.06-.07Z"/>
    <polygon class="cls-1" points="120.42 77.21 120.42 77.21 120.42 77.21 120.42 77.21"/>
    <path class="cls-3" d="M29.18,79.17l-10.12-14.74c-1.24-1.8-3.98-1.49-4.78.55l-4.8,12.22c-.63,1.61.38,3.39,2.08,3.68l14.92,2.52c2.37.4,4.06-2.24,2.7-4.23Z"/>
    <path class="cls-3" d="M37.17,110.4l-19.6,9.8c-1.78.89-2.04,3.32-.48,4.57l11.8,9.44c1.42,1.14,3.54.59,4.23-1.1l7.81-19.24c.94-2.33-1.5-4.59-3.74-3.46Z"/>
    <path class="cls-3" d="M34.52,98.81l-31.01-9.36c-1.9-.57-3.76,1.02-3.48,2.98l3.1,22.11c.25,1.8,2.17,2.86,3.83,2.1l27.91-12.76c2.28-1.04,2.06-4.36-.35-5.08Z"/>
    <path class="cls-3" d="M278.62,79.21l10.14-14.76c1.24-1.8,3.98-1.49,4.78.55l4.8,12.24c.63,1.61-.38,3.39-2.08,3.68l-14.94,2.52c-2.37.4-4.06-2.25-2.7-4.23Z"/>
    <path class="cls-3" d="M275.45,111.85l19.6,9.8c1.78.89,2.04,3.32.48,4.57l-11.8,9.44c-1.42,1.14-3.54.59-4.23-1.1l-7.81-19.24c-.94-2.33,1.5-4.59,3.74-3.46Z"/>
    <path class="cls-3" d="M276.87,94.24l31.06-9.37c1.9-.57,3.76,1.02,3.49,2.99l-3.11,22.15c-.25,1.81-2.17,2.86-3.83,2.1l-27.95-12.78c-2.28-1.04-2.06-4.36.35-5.09Z"/>
    <path class="cls-3" d="M227.84,91.52c7.24,0,14.44-4.41,15.66-13.08.49-3.49.67-7.25.67-11.15,0-1.12-.02-2.27-.05-3.42-.02-.55-.03-1.12-.05-1.69-.1-2.95-.28-5.97-.47-9.02-.73-10.95-1.8-22.19-.96-31.83-1.35-8.03-8.05-13.91-15.99-13.91-.94,0-1.92.08-2.87.24-5.84,1.04-11.78,7.17-12.61,13.06-1.35,9.61-.39,21.1.41,32.43.21,3.03.42,6.05.55,9.02.06,1.27.11,2.52.15,3.75v.23c.05,1.31.06,2.6.06,3.88,0,2.69-.1,5.31-.31,7.82,1.15,9.15,8.49,13.67,15.81,13.67Z"/>
    <path class="cls-3" d="M227.84,99.63c-11.27,0-20.33-6.95-23.14-17.27-4.27,6.08-11.4,9.86-19.71,9.86-2.55,0-4.98-.37-7.26-1.04v28.82h70.08v-30.59c-4.24,6.31-11.5,10.23-19.97,10.23Z"/>
    <path class="cls-3" d="M184.99,84.1c7.23,0,14.45-4.41,15.66-13.07,2.36-16.91-2.37-39.6-.86-57.12-1.35-8.03-8.04-13.91-15.98-13.91h0c-.94,0-1.9.08-2.87.25-5.84,1.03-11.78,7.17-12.6,13.07-2.36,16.91,2.38,39.6.86,57.12,1.16,9.16,8.49,13.66,15.8,13.66Z"/>
    <path class="cls-2" d="M267.9,67.8h-11.06v-7.44c0-3.23-2.15-5.94-5.09-6.85.17,2.73.34,5.59.43,8.44v.11s.05,1.58.05,1.58c.03,1.23.05,2.46.05,3.65,0,4.67-.24,8.69-.74,12.28-.52,3.67-1.81,7-3.73,9.84v30.59h-70.08v-28.82c-5.32-1.56-9.73-4.85-12.71-9.31-1.88,2.98-4.48,5.47-7.62,7.35.71,1.55,1.22,3.14,1.54,4.77l9.77-.12v27.96c0,3.97,3.23,7.2,7.2,7.2h73.73c3.97,0,7.2-3.23,7.2-7.2v-40.49h11.06c1.5,0,2.74-1.23,2.74-2.74v-8.06c0-1.5-1.23-2.74-2.74-2.74Z"/>
    <path class="cls-3" d="M88.4,75.75h.33s.27.01.27.01c.67.01,1.35.02,2.06.02,1,0,2.03-.01,3.09-.04,5.55-.14,11.52-.62,17.33-1.1,2.84-.23,5.72-.46,8.62-.67-1.34-16.52,1.05-36.53-1.98-51.55-1.18-5.83-7.48-11.6-13.37-12.28-.64-.07-1.28-.11-1.91-.11-8.38,0-15.2,6.45-16.09,14.88,2.26,15.33-.07,34.94,1.65,50.84Z"/>
    <path class="cls-3" d="M129.14,72.51c.07.35.18.66.27.99.19,0,.38-.02.57-.02,1.25-.03,2.46-.05,3.62-.05,1.92,0,3.72.04,5.49.13,6.32.3,12.05,2.89,16.31,7.16,2.83-2.44,4.81-6.01,5.12-10.69-2.57-17.4.79-40.33-2.59-57.07-1.18-5.83-7.48-11.6-13.37-12.28-.64-.07-1.28-.11-1.91-.11-8.38,0-15.2,6.45-16.09,14.88,2.57,17.4-.79,40.33,2.59,57.07Z"/>
    <path d="M66.8,102.88c0,.23,0,.46,0,.69,0,.02,0,.05,0,.07,0-.25,0-.51,0-.76Z"/>
    <path d="M66.76,107.59s0,.06,0,.1c0,0,0,0,0,.01,0-.04,0-.07,0-.11Z"/>
    <path d="M67.02,116.21v.96h.06c-.02-.32-.04-.64-.06-.96Z"/>
    <path d="M66.83,111.69h0c0,.07,0,.14,0,.22,0-.07,0-.14,0-.22Z"/>
    <path d="M67.02,98.31h0s-.01.08-.01.13c0-.04.01-.08.01-.13Z"/>
    <path class="cls-3" d="M80.52,78.08c-.59-4.77-.83-9.81-.9-14.91l-.05-.64h-12.56v35.78c.58-8.09,6.47-16.11,13.5-20.23Z"/>
    <path class="cls-2" d="M67.47,123.21c-.15-2.01-.28-4.03-.39-6.04,0,0,0,0,0,0h-.06v-.96c-.07-1.43-.13-2.86-.18-4.28,0-.08,0-.15,0-.23-.04-1.34-.06-2.67-.07-4,0-.16,0-.32,0-.48,0-1.22.01-2.44.04-3.65,0-.26,0-.52,0-.77.04-1.46.11-2.91.2-4.35,0-.04.01-.08.01-.13v-35.82h12.59c-.03-2.72-.01-5.45.01-8.17h-14.55c-3.97,0-7.2,3.23-7.2,7.2v6.96h-12.34c-1.5,0-2.74,1.23-2.74,2.74v13.87c0,1.5,1.23,2.74,2.74,2.74h12.34v34.68c0,3.97,3.23,7.2,7.2,7.2h2.91c-.17-2.01-.33-4.02-.48-6.03-.01-.16-.02-.31-.03-.47Z"/>
    <path class="cls-3" d="M240.03,137.14h-64.13c-8.46,0-15.31-6.86-15.31-15.31v-13.97l-1.14,2.04-.09.16c-.2.37-.41.74-.65,1.11-7.2,11.3-21.87,11.66-28.13,11.82-.52.01-1.05.02-1.58.03,1.06.73,2.07,1.5,3.03,2.31,10.05,8.5,16.85,20.98,19.14,35.14l.05.26c.03.16.08.32.09.48,0,.01,0,.03,0,.04l.04.21h-.04c.08,2.26-1.49,4.2-3.64,4.4-2,.19-3.79-1.2-4.31-3.18h-.04s-.15-.87-.15-.87c-1.98-12.27-7.79-23.03-16.38-30.29-2.48-2.1-5.79-4.02-8.98-5.89-3.2-1.87-6.52-3.8-8.43-5.62-.81-.77-1.16-1.74-.97-2.66.17-.83.75-1.48,1.64-1.85,1.66-.35,3.73-.54,6.5-.61.92-.02,1.87-.03,2.84-.03,1.19,0,2.41.01,3.67.03,1.29.01,2.6.03,3.92.03,1.13,0,2.27,0,3.4-.04,8.22-.2,17.19-1.32,21.49-8.07.18-.28.33-.58.49-.87h-.01c2.68-4.83,2.83-10.49.3-15.38-2.74-5.28-7.95-8.61-13.95-8.9-1.63-.08-3.32-.12-5.1-.12-1.1,0-2.24.01-3.42.04-5.92.15-12.08.65-18.04,1.14-5.9.48-12,.98-17.79,1.12-1.13.03-2.23.04-3.29.04-.76,0-1.5,0-2.22-.02h-.28s-.27.06-.27.06c-7.3,1.76-12.73,7.94-13.19,15.03-.71,10.8.32,22.69,1.32,34.19.9,10.41,1.83,21.17,1.45,30.96v.18s.02.18.02.18c1.43,11.09,12.37,14.87,22.02,18.21,5.21,1.8,10.12,3.5,13.58,6.12,2.07,1.57,4.28,4.23,5.93,7.08,0,0,3.83,6.17,3.83,10.28l1.28,73.92c.1,5.89,4.97,10.58,10.86,10.47l70.32-1.31c5.88-.11,10.56-4.96,10.46-10.84l-1.34-77.24c-.05-3.02,4.4-11.18,6.44-13.63,5.61-6.72,23.63-14.12,23.47-23.81l-.39-22.35c-.04-2.36-1.96-4.24-4.32-4.24Z"/>
    <g>
      <path class="cls-2" d="M262.18,253.66v21.03c0,6.41-3.98,11.16-11.16,11.16s-11.16-4.74-11.16-11.16v-68.73c0-6.41,3.85-11.16,11.16-11.16h13.85c19.62,0,27.57,9.36,27.57,26.03v6.28c0,16.28-9.23,26.54-26.93,26.54h-3.33ZM264.49,236.09c3.98,0,5.77-2.18,5.77-6.28v-11.16c0-3.97-1.67-6.15-5.64-6.15h-2.44v23.59h2.31Z"/>
      <path class="cls-2" d="M307.31,244.68c-7.18,0-10.64-3.98-10.64-10v-.77c0-11.03,9.62-17.05,24.88-17.05s23.85,7.18,23.85,20.64v37.44c0,5.77-3.72,10.64-10.77,10.64-5,0-8.21-2.05-9.74-5.51-2.18,3.08-6.41,6.03-12.57,6.03-11.67,0-17.18-8.46-17.18-20.13,0-12.57,6.03-19.23,18.72-19.23,4.23,0,7.95.77,10,1.8v-11.28c0-1.92-.77-3.08-2.82-3.08-1.79,0-2.82.9-2.82,2.95v.13c0,4.62-3.85,7.44-10.9,7.44ZM313.72,201.22c1.03-6.28,4.36-9.62,11.16-9.62,5.64,0,10.39,3.59,10.39,9.36,0,2.05-.38,3.72-1.41,6.03l-3.08,6.92h-19.23l2.18-12.69ZM320.78,271.48c1.28,0,2.44-.38,3.08-.77v-10.64c-.77-.38-1.67-.64-3.08-.64-3.08,0-4.23,1.92-4.23,5.9s1.15,6.16,4.23,6.16Z"/>
      <path class="cls-2" d="M363.47,217.37c7.05,0,10.77,4.62,10.77,10.77v63.08c0,9.23-5.13,15.39-16.28,15.39-9.1,0-13.85-3.33-13.85-9.49,0-5,2.69-7.95,6.8-7.95h.26c1.03,0,1.54-.38,1.54-1.54v-59.49c0-6.15,3.72-10.77,10.77-10.77ZM363.47,193.78c6.41,0,11.03,3.97,11.03,10.39s-4.62,10.39-11.03,10.39-11.03-3.97-11.03-10.39,4.62-10.39,11.03-10.39Z"/>
      <path class="cls-2" d="M381.8,228.14c0-6.15,3.72-10.77,10.77-10.77s10.77,4.62,10.77,10.77v36.54c0,2.18.64,3.59,3.08,3.59,1.54,0,2.56-.51,3.33-1.15v-38.98c0-6.15,3.72-10.77,10.77-10.77s10.77,4.62,10.77,10.77v47.57c0,6.15-4.23,9.87-10.51,9.87s-9.36-3.85-10.13-7.95c-1.67,4.62-6.54,8.46-13.59,8.46-10.26,0-15.26-6.67-15.26-17.18v-40.77ZM406.55,213.91c-6.67,0-11.92-4.74-11.92-11.15s5.26-11.16,11.92-11.16,11.92,4.74,11.92,11.16-5.26,11.15-11.92,11.15ZM406.55,206.73c2.31,0,3.85-1.67,3.85-3.97s-1.54-3.98-3.85-3.98-3.85,1.67-3.85,3.98,1.54,3.97,3.85,3.97Z"/>
      <path class="cls-2" d="M475.79,217.11c6.67,0,10.9,3.85,10.9,9.87,0,1.41-.26,2.69-.51,3.72l-11.67,44.49c-1.79,6.67-5.9,10.64-13.33,10.64s-11.54-3.97-13.33-10.64l-11.67-44.49c-.26-1.03-.51-2.31-.51-3.72,0-6.03,4.23-9.87,10.9-9.87s10.13,3.21,11.03,10.26l2.69,21.54c.38,2.95.77,9.1.9,13.85.13-4.74.51-10.9.9-13.85l2.69-21.54c.9-7.05,4.23-10.26,11.03-10.26Z"/>
      <path class="cls-2" d="M544.12,286.1c-5.77,0-11.16-3.08-13.33-7.31-1.15,3.59-4.49,6.79-9.87,6.79-7.31,0-10.26-4.36-10.26-10.77v-70.26c0-6.15,3.72-10.77,10.77-10.77s10.77,4.62,10.77,10.77v18.85c1.92-3.85,6.28-6.54,12.18-6.54,11.8,0,16.28,7.31,16.28,18.21v32.7c0,10-4.87,18.34-16.54,18.34ZM535.66,268.92c2.44,0,3.46-1.28,3.46-3.46v-27.95c0-2.31-1.15-3.46-3.46-3.46-1.54,0-2.82.64-3.46,1.28v32.31c.77.77,2.05,1.28,3.46,1.28Z"/>
      <path class="cls-2" d="M566.94,262.25v-21.41c0-13.98,9.1-23.98,25.13-23.98s25.13,10,25.13,23.98v21.41c0,13.98-8.98,23.85-25.13,23.85s-25.13-9.87-25.13-23.85ZM592.07,269.04c2.31,0,3.59-1.41,3.59-3.59v-27.95c0-2.18-1.28-3.59-3.59-3.59s-3.59,1.41-3.59,3.59v27.95c0,2.18,1.28,3.59,3.59,3.59Z"/>
      <path class="cls-2" d="M634.89,217.37c7.05,0,10.77,4.62,10.77,10.77v63.08c0,9.23-5.13,15.39-16.28,15.39-9.1,0-13.85-3.33-13.85-9.49,0-5,2.69-7.95,6.8-7.95h.26c1.03,0,1.54-.38,1.54-1.54v-59.49c0-6.15,3.72-10.77,10.77-10.77ZM634.89,193.78c6.41,0,11.03,3.97,11.03,10.39s-4.62,10.39-11.03,10.39-11.03-3.97-11.03-10.39,4.62-10.39,11.03-10.39Z"/>
    </g>
    <g>
      <path class="cls-2" d="M383.61,335.13c-2.03,0-3.61-1.14-4.2-2.28v7.47c0,1.53-.99,2.52-2.52,2.52s-2.52-.99-2.52-2.52v-28.68c0-1.48.89-2.52,2.42-2.52s2.37,1.09,2.52,2.37c.69-1.43,2.27-2.57,4.3-2.57,3.12,0,4.99,2.32,4.99,5.29v15.78c0,3.02-1.93,5.14-4.99,5.14ZM381.48,330.77c1.29,0,2.08-.74,2.08-2.03v-13.3c0-1.34-.64-2.18-2.03-2.18-.94,0-1.63.35-2.13.89v15.73c.45.45,1.09.89,2.08.89Z"/>
      <path class="cls-2" d="M402.9,311.54c0,1.73-.84,2.77-2.32,2.77-.64,0-1.04-.25-1.63-.25-.5,0-.89.1-1.19.3v18.05c0,1.53-.99,2.52-2.52,2.52s-2.52-.99-2.52-2.52v-20.72c0-1.63.94-2.37,2.42-2.37,1.63,0,2.28.99,2.32,3.07.2-2.37,1.14-3.36,2.97-3.36,1.63,0,2.47.89,2.47,2.52Z"/>
      <path class="cls-2" d="M404.28,328.2v-12.36c0-4.2,2.77-6.92,7.17-6.92s7.17,2.72,7.17,6.92v12.36c0,4.2-2.77,6.92-7.17,6.92s-7.17-2.72-7.17-6.92ZM411.45,330.82c1.38,0,2.13-.84,2.13-2.18v-13.25c0-1.33-.74-2.18-2.13-2.18s-2.13.84-2.13,2.18v13.25c0,1.33.74,2.18,2.13,2.18Z"/>
      <path class="cls-2" d="M428.37,313.76v15.97c0,.64.25.94.94.94.4,0,.69-.1,1.04-.1,1.24,0,1.73.94,1.73,2.03,0,1.73-1.53,2.52-3.96,2.52-3.21,0-4.8-1.98-4.8-4.8v-16.57h-.89c-1.34,0-2.13-.79-2.13-2.13s.79-2.13,2.13-2.13h.89v-4.45c0-1.53.99-2.52,2.52-2.52s2.52.99,2.52,2.52v4.45h2.13c1.33,0,2.13.79,2.13,2.13s-.79,2.13-2.13,2.13h-2.13Z"/>
      <path class="cls-2" d="M446.37,323.46h-6.92v5.39c0,1.38.74,2.13,1.98,2.13,1.09,0,2.03-.54,2.03-2.13v-.3c0-1.68.99-2.42,2.37-2.42,1.63,0,2.42,1.04,2.42,2.47v.4c-.1,3.61-2.67,6.13-6.82,6.13-4.5,0-7.02-2.57-7.02-6.92v-11.87c0-4.8,2.62-7.42,7.02-7.42s6.92,2.72,6.92,7.12v5.39c0,1.24-.84,2.03-1.98,2.03ZM443.4,319.45v-4.11c0-1.53-.74-2.22-1.98-2.22s-1.98.69-1.98,2.13v4.2h3.96Z"/>
      <path class="cls-2" d="M454.38,299.52c1.88,0,2.97,1.38,2.97,3.07s-1.09,3.02-2.97,3.02-2.97-1.33-2.97-3.02,1.09-3.07,2.97-3.07ZM454.38,334.93c-1.53,0-2.52-.99-2.52-2.52v-20.77c0-1.53.99-2.52,2.52-2.52s2.52.99,2.52,2.52v20.77c0,1.53-.99,2.52-2.52,2.52Z"/>
      <path class="cls-2" d="M468.42,313.51c-.99,0-1.68.44-2.03.89v18c0,1.53-.99,2.52-2.52,2.52s-2.52-.99-2.52-2.52v-20.67c0-1.58.89-2.42,2.37-2.42s2.32.74,2.42,2.23c.69-1.73,2.18-2.62,4.3-2.62,3.46,0,5.14,2.42,5.14,5.79v17.7c0,1.53-.99,2.52-2.52,2.52s-2.52-.99-2.52-2.52v-16.62c0-1.43-.69-2.27-2.13-2.27Z"/>
    </g>
    <path class="cls-2" d="M506.36,333c0,1.33-.99,2.22-2.32,2.22-1.24,0-1.78-.74-2.13-1.43l-2.47-5.88c-.2-.5-.49-1.14-.59-1.58-.1.45-.4,1.09-.59,1.58l-2.47,5.88c-.4.89-.89,1.43-2.13,1.43-1.33,0-2.32-.94-2.32-2.18,0-.4.1-.84.3-1.24l4.7-9.74-4.5-9.45c-.2-.45-.3-.89-.3-1.29,0-1.38,1.04-2.13,2.32-2.13,1.19,0,1.73.64,2.03,1.34l2.42,5.79c.15.35.44.94.54,1.29.1-.35.4-.94.54-1.29l2.42-5.79c.3-.69.84-1.34,2.03-1.34,1.29,0,2.33.79,2.33,2.13,0,.4-.1.84-.3,1.29l-4.5,9.45,4.7,9.74c.2.4.3.79.3,1.19Z"/>
    <g>
      <path class="cls-3" d="M529.1,333.64c-2.03,0-3.61-1.14-4.2-2.28v7.47c0,1.53-.99,2.52-2.52,2.52s-2.52-.99-2.52-2.52v-28.68c0-1.48.89-2.52,2.42-2.52s2.37,1.09,2.52,2.37c.69-1.43,2.27-2.57,4.3-2.57,3.12,0,4.99,2.32,4.99,5.29v15.78c0,3.02-1.93,5.14-4.99,5.14ZM526.97,329.29c1.29,0,2.08-.74,2.08-2.03v-13.3c0-1.34-.64-2.18-2.03-2.18-.94,0-1.63.35-2.13.89v15.73c.45.45,1.09.89,2.08.89Z"/>
      <path class="cls-3" d="M548.38,310.05c0,1.73-.84,2.77-2.32,2.77-.64,0-1.04-.25-1.63-.25-.5,0-.89.1-1.19.3v18.05c0,1.53-.99,2.52-2.52,2.52s-2.52-.99-2.52-2.52v-20.72c0-1.63.94-2.37,2.42-2.37,1.63,0,2.28.99,2.32,3.07.2-2.37,1.14-3.36,2.97-3.36,1.63,0,2.47.89,2.47,2.52Z"/>
      <path class="cls-3" d="M549.77,326.72v-12.36c0-4.2,2.77-6.92,7.17-6.92s7.17,2.72,7.17,6.92v12.36c0,4.2-2.77,6.92-7.17,6.92s-7.17-2.72-7.17-6.92ZM556.94,329.34c1.38,0,2.13-.84,2.13-2.18v-13.25c0-1.33-.74-2.18-2.13-2.18s-2.13.84-2.13,2.18v13.25c0,1.33.74,2.18,2.13,2.18Z"/>
      <path class="cls-3" d="M573.85,312.28v15.97c0,.64.25.94.94.94.4,0,.69-.1,1.04-.1,1.24,0,1.73.94,1.73,2.03,0,1.73-1.53,2.52-3.96,2.52-3.21,0-4.8-1.98-4.8-4.8v-16.57h-.89c-1.34,0-2.13-.79-2.13-2.13s.79-2.13,2.13-2.13h.89v-4.45c0-1.53.99-2.52,2.52-2.52s2.52.99,2.52,2.52v4.45h2.13c1.33,0,2.13.79,2.13,2.13s-.79,2.13-2.13,2.13h-2.13Z"/>
      <path class="cls-3" d="M579.89,326.72v-12.36c0-4.2,2.77-6.92,7.17-6.92s7.17,2.72,7.17,6.92v12.36c0,4.2-2.77,6.92-7.17,6.92s-7.17-2.72-7.17-6.92ZM587.06,329.34c1.38,0,2.13-.84,2.13-2.18v-13.25c0-1.33-.74-2.18-2.13-2.18s-2.13.84-2.13,2.18v13.25c0,1.33.74,2.18,2.13,2.18Z"/>
      <path class="cls-3" d="M605.21,312.03c-.99,0-1.68.45-2.03.89v18c0,1.53-.99,2.52-2.52,2.52s-2.52-.99-2.52-2.52v-20.67c0-1.58.89-2.42,2.37-2.42s2.32.74,2.42,2.23c.69-1.73,2.18-2.62,4.3-2.62,3.46,0,5.14,2.42,5.14,5.79v17.7c0,1.53-.99,2.52-2.52,2.52s-2.52-.99-2.52-2.52v-16.62c0-1.43-.69-2.27-2.13-2.27Z"/>
    </g>
  </g>
</svg>